<?xml version="1.0" encoding="UTF-8"?>
<svg width="40" height="40" version="1.1" viewBox="0 0 40 40" xml:space="preserve" xmlns="http://www.w3.org/2000/svg">
















<path d="m18.272 32.472c-0.23731-0.0478-0.5036-0.28823-0.55788-0.5037-0.0079-0.0315-0.07531-0.56608-0.14972-1.188l-0.13529-1.1307-0.5293-0.17574c-0.57614-0.19129-1.1735-0.44507-1.6082-0.6832l-0.27708-0.15178-0.90737 0.71335c-0.49905 0.39234-0.94784 0.73516-0.99731 0.76182-0.135 0.07276-0.45828 0.06575-0.60542-0.01312-0.06511-0.03491-0.64809-0.5969-1.3508-1.3022-1.2167-1.2212-1.237-1.2434-1.2844-1.4082-0.054093-0.18809-0.041465-0.35427 0.03868-0.50901 0.027567-0.05323 0.36854-0.5012 0.75771-0.99549l0.70759-0.89871-0.05461-0.0893c-0.24803-0.40561-0.67048-1.3905-0.84289-1.9651-0.083191-0.27725-0.10949-0.33274-0.16626-0.35084-0.037093-0.011826-0.56313-0.080463-1.169-0.15253-0.60584-0.072064-1.1407-0.14742-1.1885-0.16747-0.13983-0.058605-0.27022-0.18499-0.35325-0.34239l-0.077347-0.14662v-3.5511l0.08518-0.15379c0.090835-0.164 0.19854-0.26199 0.36391-0.33109 0.056927-0.02379 0.6126-0.10345 1.2521-0.17952l1.1498-0.13675 0.03063-0.11491c0.16721-0.62725 0.49823-1.4444 0.83754-2.0676l0.12763-0.2344-0.72826-0.92544c-0.60115-0.76391-0.73617-0.95217-0.77353-1.0786-0.049967-0.16904-0.035819-0.35814 0.037795-0.50518 0.060051-0.11995 2.4625-2.5269 2.5866-2.5914 0.15815-0.08227 0.34321-0.09902 0.5192-0.047 0.1264 0.03736 0.3147 0.17241 1.079 0.77385l0.92586 0.72859 0.20534-0.11391c0.52192-0.28952 1.1932-0.57407 1.7804-0.75471 0.18901-0.05814 0.36252-0.11535 0.38559-0.12714 0.032-0.01635 0.07395-0.28885 0.17705-1.1502 0.07432-0.6208 0.14852-1.1738 0.16488-1.229 0.0433-0.14583 0.18772-0.30576 0.35646-0.39476l0.14746-0.07777h3.5511l0.15379 0.08518c0.1647 0.09122 0.26199 0.19853 0.33209 0.36631 0.02507 0.05999 0.10169 0.59307 0.17934 1.2477l0.13558 1.1429 0.38714 0.1202c0.21293 0.06611 0.53535 0.17878 0.71648 0.25038 0.31095 0.12291 1.0281 0.46602 1.2182 0.58282l0.08699 0.05345 0.92393-0.72596c0.50816-0.39928 0.96517-0.74337 1.0156-0.76464 0.1429-0.06031 0.44257-0.04741 0.57849 0.0249 0.06589 0.03505 0.63973 0.58805 1.3508 1.3017 1.2167 1.2212 1.237 1.2434 1.2844 1.4082 0.05409 0.18806 0.04147 0.35423-0.03865 0.50901-0.02755 0.05323-0.3688 0.50074-0.75834 0.99447l-0.70825 0.89769 0.0551 0.09032c0.27023 0.44294 0.65162 1.3331 0.84548 1.9734 0.0535 0.1767 0.11468 0.33042 0.13594 0.34161 0.02127 0.01119 0.54672 0.07995 1.1677 0.1528 0.96279 0.11295 1.1483 0.14228 1.2601 0.19918 0.15464 0.07873 0.23153 0.15754 0.31398 0.32184 0.05967 0.1189 0.0605 0.14542 0.06024 1.9187l-2.58e-4 1.7982-0.08474 0.14776c-0.08388 0.14625-0.16185 0.21784-0.33166 0.30451-0.05684 0.02901-0.48421 0.09124-1.2171 0.17723-0.62124 0.07288-1.1469 0.14167-1.1682 0.15286-0.02127 0.01119-0.0832 0.16836-0.13762 0.34927-0.14489 0.48159-0.38474 1.0677-0.65323 1.5962l-0.23642 0.46539 0.71561 0.90924c0.39359 0.50008 0.73295 0.94986 0.75413 0.99951 0.06965 0.16324 0.07757 0.30845 0.02649 0.48604-0.04771 0.16589-0.06594 0.18589-1.2846 1.4091-0.68015 0.68265-1.2845 1.2658-1.3435 1.2964-0.1589 0.08239-0.3313 0.09725-0.51123 0.04407-0.12841-0.03795-0.31175-0.16931-1.079-0.77307l-0.92428-0.72735-0.2642 0.14154c-0.56814 0.30437-1.0717 0.51671-1.7391 0.73339l-0.41524 0.13481-0.13616 1.1455c-0.09165 0.77104-0.1525 1.1827-0.18616 1.2592-0.07282 0.16557-0.16719 0.26565-0.33295 0.3531l-0.14663 0.07735-1.704 0.0045c-0.93718 0.0025-1.7504-0.0049-1.8071-0.01628zm2.4713-6.2595c1.5725-0.18394 3.032-0.96463 4.0386-2.1602 1.6014-1.9021 1.9386-4.5697 0.85865-6.7922-0.31717-0.65271-0.70106-1.1858-1.2356-1.7157-0.70367-0.69763-1.4957-1.1824-2.4331-1.4892-1.3014-0.42589-2.6272-0.42589-3.9286 0-1.8664 0.61082-3.3456 2.08-3.9672 3.9404-0.74226 2.2213-0.20656 4.6257 1.4134 6.3436 0.26969 0.286 0.67687 0.62126 1.0784 0.88793 1.2137 0.80599 2.7036 1.1576 4.1755 0.98544z" fill="#fff" stroke="#fff" stroke-width=".54119"/></svg>
